<?xml version="1.0" encoding="UTF-8"?>
<svg width="256" height="170" viewBox="0 0 256 170" xmlns="http://www.w3.org/2000/svg" role="img" aria-labelledby="title desc">
  <title>Evil Pizza Oven Baddie</title>
  <desc>Stylized rolling pizza oven with glowing mouth, angry eyes, chimney smoke, and dark steel body. Transparent background.</desc>
  <defs>
    <!-- Metals & shadows -->
    <linearGradient id="steel" x1="0" y1="0" x2="1" y2="1">
      <stop offset="0%" stop-color="#3B3F46"/>
      <stop offset="100%" stop-color="#1E2228"/>
    </linearGradient>
    <linearGradient id="steel2" x1="0" y1="0" x2="0" y2="1">
      <stop offset="0%" stop-color="#555B63"/>
      <stop offset="100%" stop-color="#2B3036"/>
    </linearGradient>
    <radialGradient id="glow" cx="50%" cy="50%" r="60%">
      <stop offset="0%" stop-color="#FFD75A"/>
      <stop offset="50%" stop-color="#FF7A1A"/>
      <stop offset="100%" stop-color="#C02717"/>
    </radialGradient>
    <radialGradient id="ember" cx="50%" cy="50%" r="60%">
      <stop offset="0%" stop-color="#FFFFFF" stop-opacity="0.9"/>
      <stop offset="100%" stop-color="#FFD75A" stop-opacity="0"/>
    </radialGradient>
    <linearGradient id="eyeRed" x1="0" y1="0" x2="1" y2="0">
      <stop offset="0%" stop-color="#FF4D4D"/>
      <stop offset="100%" stop-color="#C31717"/>
    </linearGradient>
    <linearGradient id="smoke" x1="0" y1="0" x2="0" y2="1">
      <stop offset="0%" stop-color="#ADB3BA" stop-opacity="0.7"/>
      <stop offset="100%" stop-color="#7B828B" stop-opacity="0.2"/>
    </linearGradient>
  </defs>

  <!-- soft ground shadow -->
  <ellipse cx="128" cy="150" rx="90" ry="14" fill="#000" opacity="0.16"/>

  <!-- Oven body -->
  <g stroke-linejoin="round">
    <!-- Dome -->
    <path d="M44,116 C44,72 78,42 128,42 C178,42 212,72 212,116 L212,126 L44,126 Z"
          fill="url(#steel)" stroke="#0E1116" stroke-width="5"/>

    <!-- Mouth opening (arched) -->
    <path d="M84,126 L84,112 C84,98 100,86 128,86 C156,86 172,98 172,112 L172,126 Z"
          fill="url(#glow)" stroke="#4A0E0E" stroke-width="5"/>

    <!-- Brick arch around mouth -->
    <g fill="none" stroke="#5C2722" stroke-width="5" stroke-linecap="round" opacity="0.65">
      <path d="M86,110 C94,96 108,90 128,90 C148,90 162,96 170,110"/>
      <path d="M90,103 L102,98"/>
      <path d="M104,96 L116,93"/>
      <path d="M140,93 L152,96"/>
      <path d="M156,98 L168,103"/>
    </g>

    <!-- Angry eyes -->
    <g>
      <path d="M96,82 C110,78 118,76 124,82 C116,86 106,88 96,82 Z" fill="url(#eyeRed)" stroke="#4A0E0E" stroke-width="3"/>
      <path d="M132,82 C146,78 154,76 160,82 C152,86 142,88 132,82 Z" fill="url(#eyeRed)" stroke="#4A0E0E" stroke-width="3"/>
      <path d="M100,78 L116,86" stroke="#0E1116" stroke-width="4" stroke-linecap="round"/>
      <path d="M140,86 L156,78" stroke="#0E1116" stroke-width="4" stroke-linecap="round"/>
    </g>

    <!-- Ember particles inside mouth -->
    <g opacity="0.45">
      <circle cx="112" cy="110" r="3" fill="url(#ember)"/>
      <circle cx="124" cy="104" r="2.6" fill="url(#ember)"/>
      <circle cx="136" cy="112" r="2.2" fill="url(#ember)"/>
      <circle cx="144" cy="100" r="2.8" fill="url(#ember)"/>
      <circle cx="120" cy="118" r="2.4" fill="url(#ember)"/>
      <circle cx="132" cy="120" r="2.0" fill="url(#ember)"/>
    </g>

    <!-- Chimney -->
    <g>
      <rect x="162" y="30" width="26" height="22" rx="4" fill="url(#steel2)" stroke="#0E1116" stroke-width="4"/>
      <rect x="158" y="50" width="34" height="8" rx="4" fill="#2A2F35" stroke="#0E1116" stroke-width="4"/>
      <!-- Smoke puffs -->
      <g opacity="0.7">
        <ellipse cx="176" cy="22" rx="8" ry="6" fill="url(#smoke)"/>
        <ellipse cx="186" cy="16" rx="10" ry="8" fill="url(#smoke)"/>
        <ellipse cx="196" cy="10" rx="12" ry="9" fill="url(#smoke)"/>
      </g>
    </g>

    <!-- Wheels (dark) -->
    <g stroke="#0B0F16" stroke-width="4">
      <g transform="translate(92,138)">
        <circle cx="0" cy="0" r="16" fill="#1F2937"/>
        <circle cx="0" cy="0" r="6" fill="#A7B5C6" stroke="none"/>
      </g>
      <g transform="translate(170,138)">
        <circle cx="0" cy="0" r="16" fill="#1F2937"/>
        <circle cx="0" cy="0" r="6" fill="#A7B5C6" stroke="none"/>
      </g>
    </g>

    <!-- Side vents / grilles -->
    <g stroke="#11151B" stroke-width="4" opacity="0.5">
      <path d="M56,106 L72,106"/>
      <path d="M56,112 L72,112"/>
      <path d="M200,106 L184,106"/>
      <path d="M200,112 L184,112"/>
    </g>
  </g>
</svg>