<?xml version="1.0" encoding="UTF-8"?>
<svg width="128" height="128" viewBox="0 0 128 128" xmlns="http://www.w3.org/2000/svg">
  <defs>
    <linearGradient id="capGrad" x1="0" y1="0" x2="0" y2="1">
      <stop offset="0%" stop-color="#E6DDC7"/>
      <stop offset="60%" stop-color="#D7C8A9"/>
      <stop offset="100%" stop-color="#C8B592"/>
    </linearGradient>
    <linearGradient id="rimGrad" x1="0" y1="0" x2="0" y2="1">
      <stop offset="0%" stop-color="#B6A789"/>
      <stop offset="100%" stop-color="#9B8B6C"/>
    </linearGradient>
    <linearGradient id="stemGrad" x1="0" y1="0" x2="0" y2="1">
      <stop offset="0%" stop-color="#E9DFC8"/>
      <stop offset="100%" stop-color="#D7C8AB"/>
    </linearGradient>
    <filter id="drop" x="-20%" y="-20%" width="140%" height="140%">
      <feDropShadow dx="0" dy="2" stdDeviation="2" flood-color="#000" flood-opacity="0.18"/>
    </filter>
  </defs>

  <!-- Stem -->
  <g filter="url(#drop)">
    <path d="M52 64 C50 90, 50 100, 64 102 C78 100, 78 90, 76 64 Z"
          fill="url(#stemGrad)" stroke="#8F8067" stroke-width="2" />
    <path d="M60 68 C58 86, 58 94, 64 96" fill="none" stroke="#BBAE97" stroke-width="1.6" opacity="0.6"/>
    <path d="M70 68 C72 86, 72 94, 66 96" fill="none" stroke="#C3B6A0" stroke-width="1.2" opacity="0.6"/>
  </g>

  <!-- Cap -->
  <g filter="url(#drop)">
    <path d="M32 58 C32 36, 48 22, 64 22 C80 22, 96 36, 96 58 C88 56, 76 54, 64 54 C52 54, 40 56, 32 58 Z"
          fill="url(#capGrad)" stroke="#8F8067" stroke-width="2"/>
    <path d="M32 58 C40 56, 52 54, 64 54 C76 54, 88 56, 96 58 C94 62, 90 66, 86 68 C80 71, 72 72, 64 72 C56 72, 48 71, 42 68 C38 66, 34 62, 32 58 Z"
          fill="url(#rimGrad)" />
    <g stroke="#B6A689" stroke-width="1.5" stroke-linecap="round" opacity="0.75">
      <path d="M64 55 C64 68,64 72,64 72"/>
      <path d="M58 56 C58 66,59 71,60 72"/>
      <path d="M70 56 C70 66,69 71,68 72"/>
      <path d="M52 57 C52 65,54 70,56 71.5"/>
      <path d="M76 57 C76 65,74 70,72 71.5"/>
      <path d="M46 58 C48 65,50 69,54 71"/>
      <path d="M82 58 C80 65,78 69,74 71"/>
    </g>
    <path d="M44 36 C50 30, 58 28, 66 30 C60 32, 54 36, 48 40 C46 41, 42 40, 44 36 Z"
          fill="#FFFFFF" opacity="0.35"/>
  </g>
</svg>