<?xml version="1.0" encoding="UTF-8"?>
<svg width="128" height="128" viewBox="0 0 128 128" xmlns="http://www.w3.org/2000/svg">
  <defs>
    <!-- Flesh tones -->
    <linearGradient id="flesh" x1="0" y1="0" x2="0" y2="1">
      <stop offset="0%" stop-color="#F7F1E6"/>
      <stop offset="100%" stop-color="#E8DECF"/>
    </linearGradient>
    <!-- Slight toasted/browned edge -->
    <linearGradient id="edge" x1="0" y1="0" x2="0" y2="1">
      <stop offset="0%" stop-color="#BBAA93"/>
      <stop offset="100%" stop-color="#A0907C"/>
    </linearGradient>
    <!-- Cut face inner shade -->
    <radialGradient id="cutShade" cx="50%" cy="58%" r="70%">
      <stop offset="0%" stop-color="#000" stop-opacity="0.12"/>
      <stop offset="100%" stop-color="#000" stop-opacity="0"/>
    </radialGradient>
    <!-- Gill line tone -->
    <linearGradient id="gill" x1="0" y1="0" x2="1" y2="1">
      <stop offset="0%" stop-color="#9D8C77"/>
      <stop offset="100%" stop-color="#857663"/>
    </linearGradient>
    <!-- Cap highlight -->
    <linearGradient id="shine" x1="0" y1="0" x2="1" y2="1">
      <stop offset="0%" stop-color="#FFFFFF" stop-opacity="0.8"/>
      <stop offset="100%" stop-color="#FFFFFF" stop-opacity="0"/>
    </linearGradient>
  </defs>

  <!-- Proper slice silhouette: dome cap + trimmed cheeks + central stem -->
  <path id="sliceOutline"
        d="M28,56
           C28,38 45,26 64,26
           C83,26 100,38 100,56
           C100,64 96,70 88,74
           C84,76 78,77 72,78
           L56,78
           C50,77 44,76 40,74
           C32,70 28,64 28,56 Z
           M52,78
           C52,88 52,96 64,98
           C76,96 76,88 76,78
           C68,79 60,79 52,78 Z"
        fill="url(#flesh)" stroke="url(#edge)" stroke-width="2.6" stroke-linejoin="round"/>

  <!-- Cut face shading (under cap) -->
  <path d="M36,58
           C36,46 49,38 64,38
           C79,38 92,46 92,58
           C92,62 88,66 82,68
           C76,70 70,71 64,71
           C58,71 52,70 46,68
           C40,66 36,62 36,58 Z"
        fill="url(#cutShade)" opacity="0.95"/>

  <!-- Stem core (slightly darker edge) -->
  <path d="M54,78
           C54,88 54,94 64,96
           C74,94 74,88 74,78
           C68,79 60,79 54,78 Z"
        fill="url(#flesh)" stroke="url(#edge)" stroke-width="2.2"/>

  <!-- Distinct gill arcs on cut face (few, bold, rounded for small sizes) -->
  <g fill="none" stroke="url(#gill)" stroke-width="1.8" stroke-linecap="round" opacity="0.9">
    <path d="M44,60 C50,54 58,52 64,52 C70,52 78,54 84,60"/>
    <path d="M46,62 C52,58 58,56 64,56 C70,56 76,58 82,62"/>
    <path d="M48,64 C54,61 58,60 64,60 C70,60 74,61 80,64"/>
    <path d="M50,66 C56,63 58,62 64,62 C70,62 72,63 78,66"/>
  </g>

  <!-- Soft highlight on cap dome -->
  <path d="M42 36 C 50 31, 59 30, 72 32
           C 64 34, 56 38, 49 42
           C 47 43, 42 42, 42 38 Z"
        fill="url(#shine)" opacity="0.55"/>

  <!-- Tiny browning flecks near edge -->
  <g fill="#B5966B" opacity="0.85">
    <circle cx="46" cy="46" r="1.1"/>
    <circle cx="82" cy="48" r="1.1"/>
    <circle cx="54" cy="44" r="1.0"/>
    <circle cx="74" cy="44" r="1.0"/>
  </g>
</svg>