<svg xmlns="http://www.w3.org/2000/svg" width="256" height="256" viewBox="0 0 256 256" role="img" aria-labelledby="title desc">
  <title>Hard Taco Shell Icon — Clear Opening, Pizza Crust Style</title>
  <desc>3/4-tilted taco shell icon with smaller open rim, defined interior, and pizza crust-style blister marks. Transparent background.</desc>

  <defs>
    <style>
      .ol{stroke:#8B5A1C;stroke-width:7;stroke-linecap:round;stroke-linejoin:round}
      .fold{stroke:#B4772C;stroke-width:5;stroke-linecap:round}
      .shell{fill:#F4C542}
      .inner{fill:#F6C95A}
      .markA{fill:#8A4A1D}
      .markB{fill:#B4632A}
      .markC{fill:#6F3A18}
    </style>
  </defs>

  <!-- subtle perspective tilt -->
  <g transform="translate(-4,4) skewX(-6)">

    <!-- Inner rim (smaller, distinct opening) -->
    <ellipse cx="208" cy="168" rx="12" ry="5" class="ol inner"/>

    <!-- Outer shell body -->
    <path class="ol shell"
      d="M36 166
         Q122 54 206 152
         Q216 164 222 170
         Q204 178 184 182
         Q114 196 60 182
         Q34 176 36 166 Z"/>

    <!-- Smooth bottom curve -->
    <path d="M36 166 Q120 184 204 170" class="ol" fill="none"/>

    <!-- Fold line inside -->
    <path d="M54 160 Q120 80 184 152" class="fold" fill="none"/>

    <!-- Slight thickness near rim -->
    <path d="M168 176 q14 5 32 0" class="fold" fill="none"/>

    <!-- Pizza crust marks -->
    <g opacity="0.95">
      <ellipse class="markA" cx="150" cy="136" rx="7" ry="5"/>
      <ellipse class="markB" cx="170" cy="148" rx="6" ry="4.5"/>
      <ellipse class="markC" cx="126" cy="122" rx="6" ry="4.5"/>
      <ellipse class="markB" cx="94"  cy="138" rx="6" ry="4.5"/>

      <!-- medium -->
      <ellipse class="markA" cx="138" cy="152" rx="5" ry="3.5"/>
      <ellipse class="markB" cx="114" cy="142" rx="4.5" ry="3.5"/>
      <ellipse class="markC" cx="82"  cy="152" rx="4.5" ry="3.5"/>
      <ellipse class="markB" cx="64"  cy="160" rx="4" ry="3"/>

      <!-- small dots -->
      <circle class="markA" cx="106" cy="160" r="1.8"/>
      <circle class="markB" cx="126" cy="162" r="1.8"/>
      <circle class="markC" cx="144" cy="158" r="1.8"/>
      <circle class="markA" cx="166" cy="160" r="1.8"/>
      <circle class="markB" cx="182" cy="156" r="1.8"/>
    </g>
  </g>
</svg>
