<?xml version="1.0" encoding="UTF-8"?>
<svg width="128" height="128" viewBox="0 0 128 128" xmlns="http://www.w3.org/2000/svg">
  <defs>
    <!-- Body gradients -->
    <radialGradient id="tomBody" cx="45%" cy="35%" r="65%">
      <stop offset="0%" stop-color="#FF5A4F"/>
      <stop offset="60%" stop-color="#ED3A31"/>
      <stop offset="100%" stop-color="#B71C1C"/>
    </radialGradient>
    <!-- Rim shading for subtle depth -->
    <radialGradient id="rimShade" cx="50%" cy="60%" r="60%">
      <stop offset="70%" stop-color="#000" stop-opacity="0"/>
      <stop offset="100%" stop-color="#000" stop-opacity="0.18"/>
    </radialGradient>
    <!-- Stem & leaf gradients -->
    <linearGradient id="leafFill" x1="0" y1="0" x2="0" y2="1">
      <stop offset="0%" stop-color="#4CAF50"/>
      <stop offset="100%" stop-color="#2E7D32"/>
    </linearGradient>
    <linearGradient id="leafStroke" x1="0" y1="0" x2="1" y2="1">
      <stop offset="0%" stop-color="#1B5E20"/>
      <stop offset="100%" stop-color="#255D28"/>
    </linearGradient>
    <linearGradient id="stemFill" x1="0" y1="0" x2="0" y2="1">
      <stop offset="0%" stop-color="#7CB342"/>
      <stop offset="100%" stop-color="#4E7D2E"/>
    </linearGradient>
    <!-- Shine -->
    <linearGradient id="shine" x1="0" y1="0" x2="1" y2="1">
      <stop offset="0%" stop-color="#FFFFFF" stop-opacity="0.9"/>
      <stop offset="100%" stop-color="#FFFFFF" stop-opacity="0"/>
    </linearGradient>
    <!-- Soft drop shadow -->
    <filter id="softDrop" x="-20%" y="-20%" width="140%" height="140%">
      <feDropShadow dx="0" dy="2" stdDeviation="2" flood-color="#000" flood-opacity="0.18"/>
    </filter>
  </defs>

  <!-- Ground shadow -->
  <ellipse cx="64" cy="104" rx="30" ry="12" fill="#000" opacity="0.12"/>

  <!-- Tomato body -->
  <g filter="url(#softDrop)">
    <circle cx="64" cy="64" r="40" fill="url(#tomBody)" stroke="#8E1A1A" stroke-width="2.4"/>
    <circle cx="64" cy="68" r="38" fill="url(#rimShade)" />
    <!-- highlight -->
    <path d="M40 38 C 52 28, 66 26, 80 30 C 68 32, 56 40, 48 46 C 46 47, 40 46, 40 38 Z"
          fill="url(#shine)" opacity="0.7"/>
  </g>

  <!-- Calyx & stem -->
  <g transform="translate(64,38)">
    <!-- central stem -->
    <path d="M-2 -6 C -2 -12, 2 -12, 2 -6 C 2 -2, -2 -2, -2 -6 Z" fill="url(#stemFill)"/>
    <!-- five leaves -->
    <g>
      <path d="M0 0 C 10 -6, 18 -6, 22 0 C 14 4, 6 6, 0 0 Z" fill="url(#leafFill)" stroke="url(#leafStroke)" stroke-width="1.6"/>
      <g transform="rotate(72)">
        <path d="M0 0 C 10 -6, 18 -6, 22 0 C 14 4, 6 6, 0 0 Z" fill="url(#leafFill)" stroke="url(#leafStroke)" stroke-width="1.6"/>
      </g>
      <g transform="rotate(144)">
        <path d="M0 0 C 10 -6, 18 -6, 22 0 C 14 4, 6 6, 0 0 Z" fill="url(#leafFill)" stroke="url(#leafStroke)" stroke-width="1.6"/>
      </g>
      <g transform="rotate(216)">
        <path d="M0 0 C 10 -6, 18 -6, 22 0 C 14 4, 6 6, 0 0 Z" fill="url(#leafFill)" stroke="url(#leafStroke)" stroke-width="1.6"/>
      </g>
      <g transform="rotate(288)">
        <path d="M0 0 C 10 -6, 18 -6, 22 0 C 14 4, 6 6, 0 0 Z" fill="url(#leafFill)" stroke="url(#leafStroke)" stroke-width="1.6"/>
      </g>
    </g>
    <!-- veins -->
    <g opacity="0.7" stroke="#2E7D32" stroke-width="1.1">
      <path d="M0 0 C 6 -1, 12 -1, 18 0" fill="none"/>
      <path d="M0 0 C -6 -1, -12 -1, -18 0" fill="none"/>
    </g>
  </g>
</svg>